<svg width="506" height="436" viewBox="0 0 506 436" fill="none" xmlns="http://www.w3.org/2000/svg">
<path d="M346.763 435.233C345.589 435.232 344.436 434.926 343.416 434.347L149.92 324.951C148.347 324.06 147.192 322.58 146.709 320.838C146.225 319.096 146.452 317.233 147.34 315.658L299.743 46.0925C300.183 45.3127 300.773 44.6274 301.479 44.0757C302.184 43.524 302.991 43.1168 303.854 42.8772C304.717 42.6376 305.619 42.5703 306.508 42.6793C307.397 42.7883 308.256 43.0714 309.035 43.5124L502.531 152.908C504.104 153.799 505.259 155.278 505.743 157.02C506.226 158.763 506 160.625 505.112 162.2L352.709 431.766C352.27 432.547 351.681 433.234 350.975 433.786C350.269 434.338 349.461 434.744 348.597 434.982C348 435.148 347.383 435.232 346.763 435.233Z" fill="#E6E6E6"/>
<path d="M294.346 56.6535L293.568 58.0288L498.067 173.645L498.844 172.269L294.346 56.6535Z" fill="white"/>
<path d="M280.35 81.4095L279.572 82.7848L484.071 198.401L484.848 197.025L280.35 81.4095Z" fill="white"/>
<path d="M266.354 106.166L265.576 107.541L470.074 223.157L470.852 221.781L266.354 106.166Z" fill="white"/>
<path d="M252.357 130.922L251.58 132.297L456.078 247.913L456.856 246.538L252.357 130.922Z" fill="white"/>
<path d="M238.361 155.678L237.584 157.053L442.082 272.669L442.86 271.294L238.361 155.678Z" fill="white"/>
<path d="M224.365 180.434L223.588 181.809L428.086 297.425L428.863 296.05L224.365 180.434Z" fill="white"/>
<path d="M210.369 205.19L209.591 206.565L414.09 322.181L414.867 320.806L210.369 205.19Z" fill="white"/>
<path d="M196.373 229.946L195.595 231.321L400.094 346.937L400.871 345.561L196.373 229.946Z" fill="white"/>
<path d="M182.377 254.702L181.599 256.077L386.098 371.693L386.875 370.318L182.377 254.702Z" fill="white"/>
<path d="M168.38 279.458L167.603 280.833L372.101 396.449L372.879 395.074L168.38 279.458Z" fill="white"/>
<path d="M154.384 304.214L153.607 305.589L358.105 421.205L358.883 419.83L154.384 304.214Z" fill="white"/>
<path d="M328.763 394.233C327.589 394.232 326.436 393.926 325.416 393.347L131.92 283.951C130.347 283.06 129.192 281.58 128.709 279.838C128.225 278.096 128.452 276.233 129.34 274.658L281.743 5.09247C282.183 4.31273 282.773 3.62744 283.479 3.07574C284.184 2.52405 284.991 2.11677 285.854 1.87717C286.717 1.63757 287.619 1.57034 288.508 1.67934C289.397 1.78833 290.256 2.07141 291.035 2.51239L484.531 111.908C486.104 112.799 487.259 114.278 487.743 116.021C488.226 117.763 488 119.625 487.112 121.2L334.709 390.766C334.27 391.547 333.681 392.234 332.975 392.786C332.269 393.338 331.461 393.744 330.597 393.982C330 394.148 329.383 394.232 328.763 394.233Z" fill="#F2F2F2"/>
<path d="M276.346 15.6535L275.568 17.0288L480.067 132.645L480.844 131.269L276.346 15.6535Z" fill="white"/>
<path d="M262.35 40.4095L261.572 41.7848L466.071 157.401L466.848 156.025L262.35 40.4095Z" fill="white"/>
<path d="M248.354 65.1655L247.576 66.5408L452.074 182.157L452.852 180.781L248.354 65.1655Z" fill="white"/>
<path d="M234.357 89.9216L233.58 91.2969L438.078 206.913L438.856 205.537L234.357 89.9216Z" fill="white"/>
<path d="M220.361 114.678L219.584 116.053L424.082 231.669L424.86 230.294L220.361 114.678Z" fill="white"/>
<path d="M206.365 139.434L205.588 140.809L410.086 256.425L410.863 255.05L206.365 139.434Z" fill="white"/>
<path d="M192.369 164.19L191.591 165.565L396.09 281.181L396.867 279.806L192.369 164.19Z" fill="white"/>
<path d="M178.373 188.946L177.595 190.321L382.094 305.937L382.871 304.562L178.373 188.946Z" fill="white"/>
<path d="M164.377 213.702L163.599 215.077L368.098 330.693L368.875 329.318L164.377 213.702Z" fill="white"/>
<path d="M150.38 238.458L149.603 239.833L354.101 355.449L354.879 354.074L150.38 238.458Z" fill="white"/>
<path d="M136.384 263.214L135.607 264.589L340.105 380.205L340.883 378.83L136.384 263.214Z" fill="white"/>
<path d="M309.481 0H0.24353V430H309.481C310.591 430 311.657 429.559 312.442 428.773C313.228 427.988 313.669 426.923 313.669 425.812V4.18831C313.669 3.07751 313.228 2.01222 312.442 1.22676C311.657 0.441306 310.591 2.38685e-05 309.481 0V0ZM17.6948 418.133C16.1761 418.133 14.6916 417.683 13.4288 416.839C12.1661 415.995 11.1819 414.796 10.6007 413.393C10.0195 411.99 9.86749 410.446 10.1638 408.957C10.4601 407.467 11.1914 406.099 12.2652 405.025C13.3391 403.951 14.7073 403.22 16.1968 402.924C17.6863 402.627 19.2302 402.779 20.6333 403.36C22.0363 403.942 23.2356 404.926 24.0793 406.189C24.923 407.451 25.3734 408.936 25.3734 410.455C25.3734 411.463 25.1748 412.461 24.7889 413.393C24.403 414.325 23.8374 415.171 23.1244 415.884C22.4114 416.597 21.5649 417.163 20.6333 417.549C19.7017 417.935 18.7032 418.133 17.6948 418.133V418.133ZM17.6948 379.042C16.1761 379.042 14.6916 378.592 13.4288 377.748C12.1661 376.904 11.1819 375.705 10.6007 374.302C10.0196 372.899 9.86751 371.355 10.1638 369.866C10.4601 368.376 11.1914 367.008 12.2652 365.934C13.3391 364.86 14.7073 364.129 16.1968 363.833C17.6863 363.536 19.2302 363.688 20.6333 364.27C22.0363 364.851 23.2356 365.835 24.0793 367.098C24.923 368.36 25.3734 369.845 25.3734 371.364C25.3734 372.372 25.1748 373.371 24.7889 374.302C24.403 375.234 23.8374 376.08 23.1244 376.793C22.4114 377.506 21.5649 378.072 20.6333 378.458C19.7017 378.844 18.7032 379.042 17.6948 379.042V379.042ZM17.6948 339.951C16.1761 339.951 14.6916 339.501 13.4288 338.657C12.1661 337.813 11.1819 336.614 10.6007 335.211C10.0196 333.808 9.86751 332.264 10.1638 330.775C10.4601 329.285 11.1914 327.917 12.2652 326.843C13.3391 325.769 14.7073 325.038 16.1968 324.742C17.6863 324.445 19.2302 324.597 20.6333 325.179C22.0363 325.76 23.2356 326.744 24.0793 328.007C24.923 329.27 25.3734 330.754 25.3734 332.273C25.3734 333.281 25.1748 334.28 24.7889 335.211C24.403 336.143 23.8374 336.989 23.1244 337.702C22.4114 338.415 21.5649 338.981 20.6333 339.367C19.7017 339.753 18.7032 339.951 17.6948 339.951V339.951ZM17.6948 300.86C16.1761 300.86 14.6916 300.41 13.4288 299.566C12.1661 298.723 11.1819 297.523 10.6007 296.12C10.0196 294.717 9.86751 293.173 10.1638 291.684C10.4601 290.194 11.1914 288.826 12.2652 287.752C13.3391 286.678 14.7073 285.947 16.1968 285.651C17.6863 285.355 19.2302 285.507 20.6333 286.088C22.0363 286.669 23.2356 287.653 24.0793 288.916C24.923 290.179 25.3734 291.663 25.3734 293.182C25.3734 294.19 25.1748 295.189 24.7889 296.12C24.403 297.052 23.8374 297.898 23.1244 298.611C22.4114 299.324 21.5649 299.89 20.6333 300.276C19.7017 300.662 18.7032 300.86 17.6948 300.86V300.86ZM17.6948 261.77C16.1761 261.77 14.6916 261.319 13.4288 260.475C12.1661 259.632 11.1819 258.432 10.6007 257.029C10.0196 255.626 9.86751 254.082 10.1638 252.593C10.4601 251.103 11.1914 249.735 12.2652 248.661C13.3391 247.587 14.7073 246.856 16.1968 246.56C17.6863 246.264 19.2302 246.416 20.6333 246.997C22.0363 247.578 23.2356 248.562 24.0793 249.825C24.923 251.088 25.3734 252.572 25.3734 254.091C25.3734 255.099 25.1748 256.098 24.7889 257.029C24.403 257.961 23.8374 258.807 23.1244 259.521C22.4114 260.234 21.5649 260.799 20.6333 261.185C19.7017 261.571 18.7032 261.77 17.6948 261.77V261.77ZM17.6948 222.679C16.1761 222.679 14.6916 222.228 13.4288 221.384C12.1661 220.541 11.1819 219.342 10.6007 217.938C10.0196 216.535 9.86751 214.991 10.1638 213.502C10.4601 212.012 11.1914 210.644 12.2652 209.57C13.3391 208.497 14.7073 207.765 16.1968 207.469C17.6863 207.173 19.2302 207.325 20.6333 207.906C22.0363 208.487 23.2356 209.471 24.0793 210.734C24.923 211.997 25.3734 213.481 25.3734 215C25.3734 216.008 25.1748 217.007 24.7889 217.938C24.403 218.87 23.8374 219.717 23.1244 220.43C22.4114 221.143 21.5649 221.708 20.6333 222.094C19.7017 222.48 18.7032 222.679 17.6948 222.679V222.679ZM17.6948 183.588C16.1761 183.588 14.6916 183.137 13.4288 182.294C12.1661 181.45 11.1819 180.251 10.6007 178.848C10.0196 177.444 9.86751 175.901 10.1638 174.411C10.4601 172.922 11.1914 171.553 12.2652 170.48C13.3391 169.406 14.7073 168.674 16.1968 168.378C17.6863 168.082 19.2302 168.234 20.6333 168.815C22.0363 169.396 23.2356 170.38 24.0793 171.643C24.923 172.906 25.3734 174.39 25.3734 175.909C25.3734 176.917 25.1748 177.916 24.7889 178.848C24.403 179.779 23.8374 180.626 23.1244 181.339C22.4114 182.052 21.5649 182.617 20.6333 183.003C19.7017 183.389 18.7032 183.588 17.6948 183.588V183.588ZM17.6948 144.497C16.1761 144.497 14.6916 144.046 13.4288 143.203C12.1661 142.359 11.1819 141.16 10.6007 139.757C10.0196 138.354 9.86751 136.81 10.1638 135.32C10.4601 133.831 11.1914 132.462 12.2652 131.389C13.3391 130.315 14.7073 129.583 16.1968 129.287C17.6863 128.991 19.2302 129.143 20.6333 129.724C22.0363 130.305 23.2356 131.289 24.0793 132.552C24.923 133.815 25.3734 135.299 25.3734 136.818C25.3734 137.827 25.1748 138.825 24.7889 139.757C24.403 140.688 23.8374 141.535 23.1244 142.248C22.4114 142.961 21.5649 143.526 20.6333 143.912C19.7017 144.298 18.7032 144.497 17.6948 144.497V144.497ZM17.6948 105.406C16.1761 105.406 14.6916 104.956 13.4288 104.112C12.1661 103.268 11.1819 102.069 10.6007 100.666C10.0196 99.2627 9.86751 97.7187 10.1638 96.2292C10.4601 94.7398 11.1914 93.3716 12.2652 92.2977C13.3391 91.2238 14.7073 90.4925 16.1968 90.1963C17.6863 89.9 19.2302 90.052 20.6333 90.6332C22.0363 91.2144 23.2356 92.1986 24.0793 93.4613C24.923 94.724 25.3734 96.2086 25.3734 97.7273C25.3734 98.7356 25.1748 99.7341 24.7889 100.666C24.403 101.597 23.8374 102.444 23.1244 103.157C22.4114 103.87 21.5649 104.435 20.6333 104.821C19.7017 105.207 18.7032 105.406 17.6948 105.406V105.406ZM17.6948 66.3149C16.1761 66.3149 14.6916 65.8646 13.4288 65.0209C12.1661 64.1771 11.1819 62.9779 10.6007 61.5748C10.0195 60.1718 9.86749 58.6279 10.1638 57.1384C10.4601 55.6489 11.1914 54.2807 12.2652 53.2068C13.3391 52.1329 14.7073 51.4016 16.1968 51.1053C17.6863 50.809 19.2302 50.9611 20.6333 51.5423C22.0363 52.1234 23.2356 53.1076 24.0793 54.3704C24.923 55.6331 25.3734 57.1177 25.3734 58.6364C25.3734 59.6447 25.1748 60.6432 24.7889 61.5748C24.403 62.5064 23.8374 63.3529 23.1244 64.0659C22.4114 64.779 21.5649 65.3446 20.6333 65.7305C19.7017 66.1164 18.7032 66.3149 17.6948 66.3149V66.3149ZM17.6948 27.224C16.1761 27.224 14.6916 26.7737 13.4288 25.93C12.1661 25.0862 11.1819 23.887 10.6007 22.4839C10.0195 21.0809 9.86749 19.5369 10.1638 18.0474C10.4601 16.5579 11.1914 15.1898 12.2652 14.1159C13.3391 13.042 14.7073 12.3107 16.1968 12.0144C17.6863 11.7181 19.2302 11.8702 20.6333 12.4514C22.0363 13.0325 23.2356 14.0167 24.0793 15.2795C24.923 16.5422 25.3734 18.0268 25.3734 19.5455C25.3734 20.5538 25.1748 21.5523 24.7889 22.4839C24.403 23.4155 23.8374 24.262 23.1244 24.975C22.4114 25.6881 21.5649 26.2537 20.6333 26.6395C19.7017 27.0254 18.7032 27.224 17.6948 27.224V27.224Z" fill="#47B365"/>
<path d="M246.307 164.391H92.7353C91.5324 164.39 90.3791 163.911 89.5285 163.061C88.6779 162.21 88.1994 161.057 88.198 159.854V99.8214C88.1994 98.6185 88.6779 97.4652 89.5285 96.6145C90.3791 95.7639 91.5324 95.2854 92.7353 95.2841H246.307C247.51 95.2854 248.663 95.7639 249.514 96.6145C250.364 97.4652 250.843 98.6185 250.844 99.8214V159.854C250.843 161.057 250.364 162.21 249.514 163.061C248.663 163.911 247.51 164.39 246.307 164.391V164.391Z" fill="white"/>
<path d="M189.066 115.877H149.976C149.05 115.877 148.162 115.509 147.508 114.854C146.853 114.2 146.485 113.312 146.485 112.386C146.485 111.461 146.853 110.573 147.508 109.918C148.162 109.264 149.05 108.896 149.976 108.896H189.067C189.992 108.896 190.88 109.264 191.535 109.918C192.189 110.573 192.557 111.461 192.557 112.386C192.557 113.312 192.189 114.2 191.535 114.854C190.88 115.509 189.992 115.877 189.067 115.877H189.066Z" fill="black"/>
<path d="M210.706 133.328H128.336C127.41 133.328 126.523 132.96 125.868 132.306C125.214 131.651 124.846 130.763 124.846 129.838C124.846 128.912 125.214 128.024 125.868 127.37C126.523 126.715 127.41 126.347 128.336 126.347H210.706C211.632 126.347 212.52 126.715 213.174 127.37C213.829 128.024 214.196 128.912 214.196 129.838C214.196 130.763 213.829 131.651 213.174 132.306C212.52 132.96 211.632 133.328 210.706 133.328Z" fill="black"/>
<path d="M210.706 150.779H128.336C127.41 150.779 126.523 150.411 125.868 149.757C125.214 149.102 124.846 148.215 124.846 147.289C124.846 146.363 125.214 145.476 125.868 144.821C126.523 144.166 127.41 143.799 128.336 143.799H210.706C211.632 143.799 212.52 144.166 213.174 144.821C213.829 145.476 214.196 146.363 214.196 147.289C214.196 148.215 213.829 149.102 213.174 149.757C212.52 150.411 211.632 150.779 210.706 150.779Z" fill="black"/>
</svg>
